<svg id="Layer_1" data-name="Layer 1" xmlns="http://www.w3.org/2000/svg" viewBox="0 0 500 200"><defs><style>.cls-1{font-size:113.71px;font-family:Dulkanyca-Bold, Dulkanyca;font-weight:700;}.cls-1,.cls-6{fill:#fff;}.cls-2{letter-spacing:-0.02em;}.cls-3{letter-spacing:0.03em;}.cls-4{letter-spacing:-0.01em;}.cls-5{letter-spacing:-0.18em;}</style></defs><text class="cls-1" transform="translate(-3.9 149.01)"><tspan class="cls-2">C</tspan><tspan class="cls-3" x="77.79" y="0">H</tspan><tspan class="cls-4" x="163.13" y="0">U</tspan><tspan class="cls-5" x="243.98" y="0">t</tspan><tspan x="295.73" y="0">a</tspan></text><path class="cls-6" d="M396.7,127.76,397,78.32H391.3v62.91a98.46,98.46,0,0,1,23.55-3.29,67.21,67.21,0,0,1,21.89,3.38,46.94,46.94,0,0,0-15-8,55.78,55.78,0,0,0-21.7-2.27,3.09,3.09,0,0,1-3.34-2.77,4.69,4.69,0,0,1,0-.53Zm81.93-51.82a3.28,3.28,0,0,1,0-.46,2.38,2.38,0,0,1,0-.46V65a46.76,46.76,0,0,0-20.71,2.51,28.54,28.54,0,0,0-14.4,11.27v57.38a73.14,73.14,0,0,1,15.92-8.24,45.94,45.94,0,0,1,19.19-2.74V75.94Zm5.41-3h8.66a3,3,0,0,1,3,3v69.77a3.25,3.25,0,0,1-2.71,3.17,3.15,3.15,0,0,1-1.31-.15,94.73,94.73,0,0,0-25.23-4.09,58.68,58.68,0,0,0-24.4,5,3.19,3.19,0,0,1-3.46,0,58.53,58.53,0,0,0-24.4-5A94.79,94.79,0,0,0,389,148.74a2.92,2.92,0,0,1-1,.16,3,3,0,0,1-3-3V76a3,3,0,0,1,3-3h8.67l.06-10.14a3,3,0,0,1,2.4-3h0a47.73,47.73,0,0,1,26.1,2,33.54,33.54,0,0,1,15.05,11,35.24,35.24,0,0,1,15.05-10.55,52.81,52.81,0,0,1,26.09-2.52,3,3,0,0,1,2.58,3h0V72.92Zm-39.55,67.94a70.49,70.49,0,0,1,20.9-2.93,101.82,101.82,0,0,1,24,3.29V78.32H484V128a3.07,3.07,0,0,1-2.48,3,3.64,3.64,0,0,1-1.4,0A41.88,41.88,0,0,0,460,133.05a71.72,71.72,0,0,0-15.52,7.81Zm-7.27-5.9V79a26.5,26.5,0,0,0-14-11.48A41.56,41.56,0,0,0,403,65.35l-.34,59.57a58,58,0,0,1,20.18,2.73A51.46,51.46,0,0,1,437.22,135Z"/></svg>