<svg id="Layer_1" data-name="Layer 1" xmlns="http://www.w3.org/2000/svg" viewBox="0 0 1500 1500"><defs><style>.cls-1{font-size:439.74px;font-family:Dulkanyca-Bold, Dulkanyca;font-weight:700;letter-spacing:-0.02em;}.cls-2{letter-spacing:0.03em;}.cls-3{letter-spacing:-0.01em;}.cls-4{letter-spacing:-0.18em;}.cls-5{letter-spacing:0em;}</style></defs><text class="cls-1" transform="translate(0 691.18)">C<tspan class="cls-2" x="300.82" y="0">H</tspan><tspan class="cls-3" x="630.83" y="0">U</tspan><tspan class="cls-4" x="943.46" y="0">t</tspan><tspan class="cls-5" x="1143.57" y="0">A</tspan></text><path d="M465.22,1206.71l1.85-322.48H430v410.33c51-12.92,102.11-21.14,153.61-21.49,47.55-.3,95.11,6.22,142.78,22.07A306.94,306.94,0,0,0,628.51,1243c-44.38-14.21-92.35-18.91-141.52-14.8a20.09,20.09,0,0,1-21.77-18.08,16.19,16.19,0,0,1,0-3.41Zm534.33-338a25.74,25.74,0,0,1-.23-3,18,18,0,0,1,.23-3V797c-46.08-4.37-93.58.71-135.06,16.43-38.76,14.71-72.2,38.87-93.94,73.5v374.22c33.8-22.57,68.36-41.12,103.87-53.76,40.47-14.42,82.06-21.27,125.13-17.85V868.73ZM1034.84,849h56.49a19.79,19.79,0,0,1,19.79,19.79v455c0,9.84-7.88,19.72-17.68,20.69a19.87,19.87,0,0,1-8.53-1c-55.25-15.8-110.15-26.31-164.52-26.66-53-.35-106,9-159.16,32.41a20,20,0,0,1-11.29,3.29,20.17,20.17,0,0,1-11.28-3.29c-53.14-23.48-106.15-32.76-159.17-32.41-54.37.35-109.2,10.86-164.51,26.66a19.46,19.46,0,0,1-6.41,1.06,19.7,19.7,0,0,1-19.69-19.73V868.79A19.79,19.79,0,0,1,408.67,849h56.55l.35-66.12a19.73,19.73,0,0,1,15.67-19.26h0c51.88-10.86,114.93-8.16,170.21,13.1,38.19,14.68,72.87,38.11,98.2,71.93,25.56-31.53,59.72-54.2,98.14-68.82,52.53-20,113.12-24.84,170.15-16.44a19.72,19.72,0,0,1,16.84,19.55h0V849Zm-258,443.15c45.49-13.74,90.92-19.38,136.35-19.14,52.57.29,104.77,8.57,156.8,21.49V884.23h-35.24V1208c0,9.61-6.7,18.23-16.17,19.87a23,23,0,0,1-9.16-.13c-45.07-6.82-88.72-1.18-131.34,13.44-34.32,11.8-68,29.42-101.24,51Zm-47.42-38.5V888.52c-20.53-36.23-53.73-60.48-91.24-74.85-42.51-16.28-90.25-19.94-131.89-14l-2.21,388.51c45.42-1.62,89.84,4.13,131.66,17.8a335.64,335.64,0,0,1,93.68,47.68Z"/></svg>